<?xml version="1.0" standalone="no"?>
<!DOCTYPE svg PUBLIC "-//W3C//DTD SVG 20010904//EN"
 "http://www.w3.org/TR/2001/REC-SVG-20010904/DTD/svg10.dtd">
<svg version="1.0" xmlns="http://www.w3.org/2000/svg"
 width="1250.000000pt" height="1250.000000pt" viewBox="0 0 1250.000000 1250.000000"
 preserveAspectRatio="xMidYMid meet">
<metadata>
Created by potrace 1.14, written by Peter Selinger 2001-2017
</metadata>
<g transform="translate(0.000000,1250.000000) scale(0.100000,-0.100000)"
fill="#000000" stroke="none">
<path d="M6684 12095 c-175 -223 -331 -424 -346 -448 -23 -36 -42 -100 -72
-247 -3 -14 -7 -36 -10 -50 -21 -104 -132 -520 -138 -520 -5 0 -45 28 -91 63
-259 199 -376 284 -407 296 -19 8 -73 30 -120 48 -47 19 -103 42 -125 51 -22
8 -58 23 -80 33 -276 118 -434 173 -555 193 -19 3 -47 8 -62 11 -45 8 -76 14
-223 40 -77 13 -185 33 -240 43 -110 19 -157 14 -199 -24 -12 -10 -40 -34 -62
-53 -21 -19 -72 -64 -113 -100 -40 -36 -86 -78 -102 -92 -16 -14 -29 -32 -29
-40 0 -13 46 -149 53 -155 2 -2 21 -4 42 -5 52 -3 56 -6 45 -33 -5 -15 -3 -42
8 -80 l17 -57 205 -131 c113 -72 238 -153 278 -179 41 -27 77 -49 80 -49 4 0
27 -19 53 -43 127 -118 257 -237 279 -256 l25 -21 -25 4 c-14 2 -70 14 -125
25 -55 12 -113 24 -130 27 -16 2 -44 9 -61 13 -48 13 -700 5 -759 -9 -27 -6
-61 -13 -75 -15 -14 -2 -59 -11 -100 -19 -41 -8 -88 -18 -105 -21 -16 -3 -59
-11 -95 -18 l-65 -12 -33 -68 -33 -67 70 -139 c39 -76 115 -225 169 -332 l100
-193 52 -26 c45 -23 59 -26 94 -19 56 11 144 20 129 13 -11 -5 -88 -89 -347
-378 -39 -44 -76 -84 -82 -90 -5 -6 -13 -19 -17 -28 -3 -9 -19 -25 -34 -34
-15 -9 -77 -49 -137 -88 l-110 -71 127 -3 c91 -2 127 -6 128 -15 1 -15 -2
-106 -6 -167 -2 -25 -4 -60 -4 -78 l-1 -33 -112 1 c-62 1 -205 1 -318 1 l-205
-1 -36 -33 c-20 -17 -69 -61 -110 -97 -41 -36 -112 -102 -159 -147 l-84 -82
531 0 531 0 49 -25 49 -24 30 22 c16 13 46 25 66 28 36 4 37 3 53 -47 14 -47
21 -54 73 -82 55 -28 60 -29 102 -17 25 6 133 35 240 64 107 29 207 58 221 66
21 10 195 20 277 15 7 -1 -20 -39 -60 -84 -40 -46 -113 -143 -162 -215 l-89
-132 -1157 0 -1158 0 -33 -38 c-35 -40 -53 -62 -161 -197 -67 -84 -208 -272
-208 -278 0 -2 549 -4 1220 -4 671 0 1223 -2 1226 -5 5 -5 -35 -100 -67 -160
-16 -32 -9 -42 64 -90 57 -38 74 -45 85 -35 13 10 14 4 8 -40 l-6 -52 80 -30
c44 -17 83 -31 87 -31 4 0 64 83 132 184 126 188 181 255 210 257 21 1 824 1
832 0 3 -1 2 -29 -2 -63 -25 -195 -24 -192 -14 -368 4 -74 8 -146 9 -160 l1
-25 -1925 -2 c-1059 -1 -2029 -3 -2157 -3 l-232 0 -61 -107 c-115 -203 -296
-599 -287 -627 2 -7 744 -11 2418 -11 1603 0 2414 -3 2414 -10 -1 -14 -23
-120 -41 -190 -19 -74 -23 -93 -29 -126 -3 -15 -17 -76 -31 -135 -14 -60 -27
-118 -30 -129 -2 -11 -18 -84 -36 -162 l-32 -143 -2441 -2 -2440 -3 -17 -125
c-26 -191 -33 -260 -44 -450 -8 -138 -12 -443 -6 -475 3 -20 11 -20 2392 -19
2222 0 2388 -1 2385 -16 -2 -9 -6 -41 -10 -71 -4 -30 -8 -57 -10 -60 -6 -8
-14 -112 -20 -244 -3 -66 -7 -147 -10 -180 -2 -33 -7 -125 -10 -205 -3 -80 -8
-170 -10 -200 -2 -30 -7 -111 -11 -180 -3 -69 -7 -127 -9 -129 -2 -2 -1019 -3
-2259 -3 -1801 0 -2256 -3 -2256 -13 0 -31 73 -300 131 -482 85 -271 246 -651
357 -849 10 -16 39 -69 66 -117 l49 -87 809 -2 809 -3 -163 -88 c-90 -48 -188
-102 -219 -119 l-57 -31 10 -36 c5 -20 16 -59 24 -88 l14 -52 3307 0 c2753 0
3304 2 3292 13 -27 25 -125 111 -178 156 -73 62 -291 251 -291 253 0 1 660 2
1466 2 l1465 0 47 106 c65 147 66 150 112 274 49 132 110 312 140 415 12 41
26 86 31 100 13 38 94 342 119 450 12 52 28 116 35 143 7 26 10 49 6 51 -3 2
-1313 4 -2911 4 -1598 1 -2916 1 -2930 1 -17 1 -26 7 -26 19 -1 14 -13 109
-29 217 -15 101 -45 318 -51 360 -3 28 -8 57 -9 65 -2 9 -7 43 -11 75 -4 33
-9 62 -9 65 -15 61 -28 460 -16 478 3 5 1395 8 3094 8 l3087 -1 1 70 c3 166 2
250 -5 405 -3 91 -8 179 -11 197 -2 17 -6 62 -9 100 -6 66 -15 152 -21 183 -1
8 -6 39 -10 68 l-7 52 -3054 0 c-1680 0 -3054 3 -3054 8 0 4 5 39 10 77 6 39
13 88 16 110 3 22 7 51 9 65 6 40 14 101 20 150 3 25 7 56 10 70 3 23 11 77
20 140 2 14 9 63 15 110 17 125 21 154 26 160 7 6 293 7 302 0 5 -3 21 -22 36
-42 38 -51 96 -72 179 -64 36 3 78 11 93 16 27 11 103 66 116 85 5 7 813 10
2515 11 2174 0 2508 2 2505 15 -5 22 -61 169 -88 227 -13 29 -24 55 -24 58 0
10 -143 290 -187 366 l-45 78 -346 0 c-191 0 -1095 0 -2009 1 l-1662 0 30 82
c29 77 30 88 25 177 -3 52 -8 104 -10 115 -2 12 -7 52 -11 90 -3 39 -11 87
-16 109 -6 21 -8 41 -5 44 3 3 814 5 1801 5 1106 0 1795 4 1795 10 0 15 -258
369 -290 397 -3 3 -25 29 -49 58 l-43 52 -1031 0 -1032 1 -121 117 c-67 64
-176 160 -242 212 -67 52 -119 96 -117 99 3 2 72 4 153 3 l148 -1 98 -46 c57
-27 136 -75 188 -115 l89 -69 75 46 c68 42 75 49 70 72 -23 101 -23 101 40 75
38 -16 38 -16 60 12 l22 27 586 -1 c322 0 586 1 586 4 0 8 -130 127 -224 205
-16 13 -46 38 -65 54 -20 17 -55 45 -78 63 l-41 32 -451 0 -450 1 -23 32 c-12
18 -25 34 -28 37 -3 3 -18 23 -35 45 -16 22 -49 61 -73 87 -25 26 -51 56 -59
68 l-14 20 368 0 368 0 -80 51 c-44 29 -98 64 -120 79 -22 15 -59 37 -82 50
-24 13 -43 27 -43 31 0 3 18 9 41 13 34 5 75 -5 254 -64 l213 -71 126 2 127 1
34 69 c19 38 35 74 35 80 0 13 -555 758 -574 772 -15 10 -81 48 -136 79 -323
178 -297 166 -477 209 -92 22 -177 41 -188 44 -11 2 -29 6 -40 9 -11 3 -60 13
-109 24 l-89 18 54 26 c30 14 115 53 189 87 74 34 241 115 370 180 264 133
287 153 294 244 1 26 5 50 9 53 3 3 25 -1 49 -10 l43 -14 53 51 c28 28 54 59
57 68 3 9 -31 113 -75 231 -78 203 -105 253 -150 278 -22 12 -423 100 -455
100 -16 0 -172 -71 -362 -165 l-335 -166 -256 -189 c-142 -105 -268 -198 -281
-207 -14 -10 -86 -66 -160 -125 -75 -59 -138 -107 -141 -108 -3 0 -5 241 -5
536 l0 536 -43 212 c-23 116 -45 225 -49 241 -13 56 -9 157 13 380 l6 60 -78
30 c-42 17 -80 31 -84 33 -3 1 -150 -180 -326 -403z m-1712 -3580 c-89 -64
-92 -65 -154 -65 -58 1 -62 2 -43 16 11 8 31 24 44 35 13 12 38 26 55 31 62
19 161 46 175 47 8 1 -27 -28 -77 -64z m514 -572 c-2 -10 -7 -31 -10 -48 -4
-16 -8 -39 -11 -50 -2 -11 -11 -57 -21 -102 l-17 -83 -185 0 -184 0 58 45 c33
25 66 51 74 58 134 109 262 195 293 197 5 0 6 -8 3 -17z m2036 -166 c128 -49
244 -94 257 -100 19 -10 -22 -13 -209 -15 -129 -1 -237 1 -240 5 -4 5 -24 51
-44 103 -20 52 -43 107 -51 122 -24 42 -18 44 19 7 28 -28 78 -51 268 -122z
m-574 -685 c12 -26 42 -112 68 -192 25 -80 52 -164 60 -188 8 -23 14 -76 14
-117 l0 -75 -62 0 -63 0 -39 243 c-21 133 -40 249 -42 258 -1 9 -5 33 -8 54
-4 20 -9 41 -11 46 -8 11 25 27 45 22 10 -3 27 -26 38 -51z"/>
</g>
</svg>
