<?xml version="1.0" standalone="no"?>
<!DOCTYPE svg PUBLIC "-//W3C//DTD SVG 1.1//EN" "http://www.w3.org/Graphics/SVG/1.1/DTD/svg11.dtd">
<svg width="205" height="205" version="1.1" xmlns="http://www.w3.org/2000/svg">
	<desc>https://windsor.communityvotes.com/n/691120-digital-oasis                                                                                                       </desc>
	<g id="elements" fill="black" stroke="none">
		<rect x="0" y="0" width="5" height="5" />
		<rect x="5" y="0" width="5" height="5" />
		<rect x="10" y="0" width="5" height="5" />
		<rect x="15" y="0" width="5" height="5" />
		<rect x="20" y="0" width="5" height="5" />
		<rect x="25" y="0" width="5" height="5" />
		<rect x="30" y="0" width="5" height="5" />
		<rect x="40" y="0" width="5" height="5" />
		<rect x="65" y="0" width="5" height="5" />
		<rect x="75" y="0" width="5" height="5" />
		<rect x="80" y="0" width="5" height="5" />
		<rect x="85" y="0" width="5" height="5" />
		<rect x="90" y="0" width="5" height="5" />
		<rect x="95" y="0" width="5" height="5" />
		<rect x="115" y="0" width="5" height="5" />
		<rect x="120" y="0" width="5" height="5" />
		<rect x="130" y="0" width="5" height="5" />
		<rect x="150" y="0" width="5" height="5" />
		<rect x="170" y="0" width="5" height="5" />
		<rect x="175" y="0" width="5" height="5" />
		<rect x="180" y="0" width="5" height="5" />
		<rect x="185" y="0" width="5" height="5" />
		<rect x="190" y="0" width="5" height="5" />
		<rect x="195" y="0" width="5" height="5" />
		<rect x="200" y="0" width="5" height="5" />
		<rect x="0" y="5" width="5" height="5" />
		<rect x="30" y="5" width="5" height="5" />
		<rect x="45" y="5" width="5" height="5" />
		<rect x="70" y="5" width="5" height="5" />
		<rect x="80" y="5" width="5" height="5" />
		<rect x="85" y="5" width="5" height="5" />
		<rect x="95" y="5" width="5" height="5" />
		<rect x="115" y="5" width="5" height="5" />
		<rect x="150" y="5" width="5" height="5" />
		<rect x="155" y="5" width="5" height="5" />
		<rect x="170" y="5" width="5" height="5" />
		<rect x="200" y="5" width="5" height="5" />
		<rect x="0" y="10" width="5" height="5" />
		<rect x="10" y="10" width="5" height="5" />
		<rect x="15" y="10" width="5" height="5" />
		<rect x="20" y="10" width="5" height="5" />
		<rect x="30" y="10" width="5" height="5" />
		<rect x="50" y="10" width="5" height="5" />
		<rect x="55" y="10" width="5" height="5" />
		<rect x="70" y="10" width="5" height="5" />
		<rect x="75" y="10" width="5" height="5" />
		<rect x="80" y="10" width="5" height="5" />
		<rect x="90" y="10" width="5" height="5" />
		<rect x="110" y="10" width="5" height="5" />
		<rect x="115" y="10" width="5" height="5" />
		<rect x="125" y="10" width="5" height="5" />
		<rect x="130" y="10" width="5" height="5" />
		<rect x="135" y="10" width="5" height="5" />
		<rect x="145" y="10" width="5" height="5" />
		<rect x="160" y="10" width="5" height="5" />
		<rect x="170" y="10" width="5" height="5" />
		<rect x="180" y="10" width="5" height="5" />
		<rect x="185" y="10" width="5" height="5" />
		<rect x="190" y="10" width="5" height="5" />
		<rect x="200" y="10" width="5" height="5" />
		<rect x="0" y="15" width="5" height="5" />
		<rect x="10" y="15" width="5" height="5" />
		<rect x="15" y="15" width="5" height="5" />
		<rect x="20" y="15" width="5" height="5" />
		<rect x="30" y="15" width="5" height="5" />
		<rect x="45" y="15" width="5" height="5" />
		<rect x="60" y="15" width="5" height="5" />
		<rect x="75" y="15" width="5" height="5" />
		<rect x="85" y="15" width="5" height="5" />
		<rect x="95" y="15" width="5" height="5" />
		<rect x="100" y="15" width="5" height="5" />
		<rect x="130" y="15" width="5" height="5" />
		<rect x="140" y="15" width="5" height="5" />
		<rect x="145" y="15" width="5" height="5" />
		<rect x="155" y="15" width="5" height="5" />
		<rect x="170" y="15" width="5" height="5" />
		<rect x="180" y="15" width="5" height="5" />
		<rect x="185" y="15" width="5" height="5" />
		<rect x="190" y="15" width="5" height="5" />
		<rect x="200" y="15" width="5" height="5" />
		<rect x="0" y="20" width="5" height="5" />
		<rect x="10" y="20" width="5" height="5" />
		<rect x="15" y="20" width="5" height="5" />
		<rect x="20" y="20" width="5" height="5" />
		<rect x="30" y="20" width="5" height="5" />
		<rect x="45" y="20" width="5" height="5" />
		<rect x="50" y="20" width="5" height="5" />
		<rect x="55" y="20" width="5" height="5" />
		<rect x="65" y="20" width="5" height="5" />
		<rect x="70" y="20" width="5" height="5" />
		<rect x="105" y="20" width="5" height="5" />
		<rect x="135" y="20" width="5" height="5" />
		<rect x="140" y="20" width="5" height="5" />
		<rect x="150" y="20" width="5" height="5" />
		<rect x="160" y="20" width="5" height="5" />
		<rect x="170" y="20" width="5" height="5" />
		<rect x="180" y="20" width="5" height="5" />
		<rect x="185" y="20" width="5" height="5" />
		<rect x="190" y="20" width="5" height="5" />
		<rect x="200" y="20" width="5" height="5" />
		<rect x="0" y="25" width="5" height="5" />
		<rect x="30" y="25" width="5" height="5" />
		<rect x="60" y="25" width="5" height="5" />
		<rect x="80" y="25" width="5" height="5" />
		<rect x="90" y="25" width="5" height="5" />
		<rect x="95" y="25" width="5" height="5" />
		<rect x="100" y="25" width="5" height="5" />
		<rect x="115" y="25" width="5" height="5" />
		<rect x="120" y="25" width="5" height="5" />
		<rect x="130" y="25" width="5" height="5" />
		<rect x="135" y="25" width="5" height="5" />
		<rect x="140" y="25" width="5" height="5" />
		<rect x="145" y="25" width="5" height="5" />
		<rect x="160" y="25" width="5" height="5" />
		<rect x="170" y="25" width="5" height="5" />
		<rect x="200" y="25" width="5" height="5" />
		<rect x="0" y="30" width="5" height="5" />
		<rect x="5" y="30" width="5" height="5" />
		<rect x="10" y="30" width="5" height="5" />
		<rect x="15" y="30" width="5" height="5" />
		<rect x="20" y="30" width="5" height="5" />
		<rect x="25" y="30" width="5" height="5" />
		<rect x="30" y="30" width="5" height="5" />
		<rect x="40" y="30" width="5" height="5" />
		<rect x="50" y="30" width="5" height="5" />
		<rect x="60" y="30" width="5" height="5" />
		<rect x="70" y="30" width="5" height="5" />
		<rect x="80" y="30" width="5" height="5" />
		<rect x="90" y="30" width="5" height="5" />
		<rect x="100" y="30" width="5" height="5" />
		<rect x="110" y="30" width="5" height="5" />
		<rect x="120" y="30" width="5" height="5" />
		<rect x="130" y="30" width="5" height="5" />
		<rect x="140" y="30" width="5" height="5" />
		<rect x="150" y="30" width="5" height="5" />
		<rect x="160" y="30" width="5" height="5" />
		<rect x="170" y="30" width="5" height="5" />
		<rect x="175" y="30" width="5" height="5" />
		<rect x="180" y="30" width="5" height="5" />
		<rect x="185" y="30" width="5" height="5" />
		<rect x="190" y="30" width="5" height="5" />
		<rect x="195" y="30" width="5" height="5" />
		<rect x="200" y="30" width="5" height="5" />
		<rect x="40" y="35" width="5" height="5" />
		<rect x="50" y="35" width="5" height="5" />
		<rect x="75" y="35" width="5" height="5" />
		<rect x="80" y="35" width="5" height="5" />
		<rect x="85" y="35" width="5" height="5" />
		<rect x="100" y="35" width="5" height="5" />
		<rect x="110" y="35" width="5" height="5" />
		<rect x="115" y="35" width="5" height="5" />
		<rect x="125" y="35" width="5" height="5" />
		<rect x="0" y="40" width="5" height="5" />
		<rect x="5" y="40" width="5" height="5" />
		<rect x="15" y="40" width="5" height="5" />
		<rect x="20" y="40" width="5" height="5" />
		<rect x="30" y="40" width="5" height="5" />
		<rect x="45" y="40" width="5" height="5" />
		<rect x="50" y="40" width="5" height="5" />
		<rect x="60" y="40" width="5" height="5" />
		<rect x="70" y="40" width="5" height="5" />
		<rect x="85" y="40" width="5" height="5" />
		<rect x="90" y="40" width="5" height="5" />
		<rect x="95" y="40" width="5" height="5" />
		<rect x="100" y="40" width="5" height="5" />
		<rect x="110" y="40" width="5" height="5" />
		<rect x="120" y="40" width="5" height="5" />
		<rect x="130" y="40" width="5" height="5" />
		<rect x="145" y="40" width="5" height="5" />
		<rect x="170" y="40" width="5" height="5" />
		<rect x="200" y="40" width="5" height="5" />
		<rect x="10" y="45" width="5" height="5" />
		<rect x="25" y="45" width="5" height="5" />
		<rect x="50" y="45" width="5" height="5" />
		<rect x="80" y="45" width="5" height="5" />
		<rect x="85" y="45" width="5" height="5" />
		<rect x="90" y="45" width="5" height="5" />
		<rect x="95" y="45" width="5" height="5" />
		<rect x="100" y="45" width="5" height="5" />
		<rect x="105" y="45" width="5" height="5" />
		<rect x="125" y="45" width="5" height="5" />
		<rect x="135" y="45" width="5" height="5" />
		<rect x="150" y="45" width="5" height="5" />
		<rect x="155" y="45" width="5" height="5" />
		<rect x="175" y="45" width="5" height="5" />
		<rect x="180" y="45" width="5" height="5" />
		<rect x="185" y="45" width="5" height="5" />
		<rect x="190" y="45" width="5" height="5" />
		<rect x="195" y="45" width="5" height="5" />
		<rect x="10" y="50" width="5" height="5" />
		<rect x="20" y="50" width="5" height="5" />
		<rect x="30" y="50" width="5" height="5" />
		<rect x="35" y="50" width="5" height="5" />
		<rect x="45" y="50" width="5" height="5" />
		<rect x="50" y="50" width="5" height="5" />
		<rect x="60" y="50" width="5" height="5" />
		<rect x="65" y="50" width="5" height="5" />
		<rect x="80" y="50" width="5" height="5" />
		<rect x="85" y="50" width="5" height="5" />
		<rect x="90" y="50" width="5" height="5" />
		<rect x="110" y="50" width="5" height="5" />
		<rect x="115" y="50" width="5" height="5" />
		<rect x="120" y="50" width="5" height="5" />
		<rect x="130" y="50" width="5" height="5" />
		<rect x="135" y="50" width="5" height="5" />
		<rect x="140" y="50" width="5" height="5" />
		<rect x="150" y="50" width="5" height="5" />
		<rect x="180" y="50" width="5" height="5" />
		<rect x="190" y="50" width="5" height="5" />
		<rect x="195" y="50" width="5" height="5" />
		<rect x="0" y="55" width="5" height="5" />
		<rect x="5" y="55" width="5" height="5" />
		<rect x="10" y="55" width="5" height="5" />
		<rect x="15" y="55" width="5" height="5" />
		<rect x="20" y="55" width="5" height="5" />
		<rect x="25" y="55" width="5" height="5" />
		<rect x="35" y="55" width="5" height="5" />
		<rect x="40" y="55" width="5" height="5" />
		<rect x="50" y="55" width="5" height="5" />
		<rect x="55" y="55" width="5" height="5" />
		<rect x="60" y="55" width="5" height="5" />
		<rect x="75" y="55" width="5" height="5" />
		<rect x="80" y="55" width="5" height="5" />
		<rect x="90" y="55" width="5" height="5" />
		<rect x="95" y="55" width="5" height="5" />
		<rect x="115" y="55" width="5" height="5" />
		<rect x="120" y="55" width="5" height="5" />
		<rect x="125" y="55" width="5" height="5" />
		<rect x="130" y="55" width="5" height="5" />
		<rect x="135" y="55" width="5" height="5" />
		<rect x="145" y="55" width="5" height="5" />
		<rect x="155" y="55" width="5" height="5" />
		<rect x="165" y="55" width="5" height="5" />
		<rect x="175" y="55" width="5" height="5" />
		<rect x="185" y="55" width="5" height="5" />
		<rect x="0" y="60" width="5" height="5" />
		<rect x="5" y="60" width="5" height="5" />
		<rect x="10" y="60" width="5" height="5" />
		<rect x="15" y="60" width="5" height="5" />
		<rect x="25" y="60" width="5" height="5" />
		<rect x="30" y="60" width="5" height="5" />
		<rect x="35" y="60" width="5" height="5" />
		<rect x="40" y="60" width="5" height="5" />
		<rect x="50" y="60" width="5" height="5" />
		<rect x="55" y="60" width="5" height="5" />
		<rect x="60" y="60" width="5" height="5" />
		<rect x="85" y="60" width="5" height="5" />
		<rect x="105" y="60" width="5" height="5" />
		<rect x="110" y="60" width="5" height="5" />
		<rect x="115" y="60" width="5" height="5" />
		<rect x="120" y="60" width="5" height="5" />
		<rect x="150" y="60" width="5" height="5" />
		<rect x="155" y="60" width="5" height="5" />
		<rect x="160" y="60" width="5" height="5" />
		<rect x="165" y="60" width="5" height="5" />
		<rect x="175" y="60" width="5" height="5" />
		<rect x="15" y="65" width="5" height="5" />
		<rect x="25" y="65" width="5" height="5" />
		<rect x="45" y="65" width="5" height="5" />
		<rect x="65" y="65" width="5" height="5" />
		<rect x="90" y="65" width="5" height="5" />
		<rect x="100" y="65" width="5" height="5" />
		<rect x="110" y="65" width="5" height="5" />
		<rect x="125" y="65" width="5" height="5" />
		<rect x="130" y="65" width="5" height="5" />
		<rect x="135" y="65" width="5" height="5" />
		<rect x="140" y="65" width="5" height="5" />
		<rect x="145" y="65" width="5" height="5" />
		<rect x="155" y="65" width="5" height="5" />
		<rect x="175" y="65" width="5" height="5" />
		<rect x="180" y="65" width="5" height="5" />
		<rect x="185" y="65" width="5" height="5" />
		<rect x="190" y="65" width="5" height="5" />
		<rect x="195" y="65" width="5" height="5" />
		<rect x="200" y="65" width="5" height="5" />
		<rect x="0" y="70" width="5" height="5" />
		<rect x="5" y="70" width="5" height="5" />
		<rect x="15" y="70" width="5" height="5" />
		<rect x="20" y="70" width="5" height="5" />
		<rect x="30" y="70" width="5" height="5" />
		<rect x="35" y="70" width="5" height="5" />
		<rect x="40" y="70" width="5" height="5" />
		<rect x="45" y="70" width="5" height="5" />
		<rect x="50" y="70" width="5" height="5" />
		<rect x="55" y="70" width="5" height="5" />
		<rect x="60" y="70" width="5" height="5" />
		<rect x="85" y="70" width="5" height="5" />
		<rect x="90" y="70" width="5" height="5" />
		<rect x="95" y="70" width="5" height="5" />
		<rect x="110" y="70" width="5" height="5" />
		<rect x="115" y="70" width="5" height="5" />
		<rect x="135" y="70" width="5" height="5" />
		<rect x="140" y="70" width="5" height="5" />
		<rect x="180" y="70" width="5" height="5" />
		<rect x="190" y="70" width="5" height="5" />
		<rect x="200" y="70" width="5" height="5" />
		<rect x="5" y="75" width="5" height="5" />
		<rect x="10" y="75" width="5" height="5" />
		<rect x="20" y="75" width="5" height="5" />
		<rect x="25" y="75" width="5" height="5" />
		<rect x="45" y="75" width="5" height="5" />
		<rect x="55" y="75" width="5" height="5" />
		<rect x="65" y="75" width="5" height="5" />
		<rect x="80" y="75" width="5" height="5" />
		<rect x="95" y="75" width="5" height="5" />
		<rect x="105" y="75" width="5" height="5" />
		<rect x="110" y="75" width="5" height="5" />
		<rect x="115" y="75" width="5" height="5" />
		<rect x="120" y="75" width="5" height="5" />
		<rect x="135" y="75" width="5" height="5" />
		<rect x="160" y="75" width="5" height="5" />
		<rect x="175" y="75" width="5" height="5" />
		<rect x="185" y="75" width="5" height="5" />
		<rect x="200" y="75" width="5" height="5" />
		<rect x="5" y="80" width="5" height="5" />
		<rect x="10" y="80" width="5" height="5" />
		<rect x="30" y="80" width="5" height="5" />
		<rect x="35" y="80" width="5" height="5" />
		<rect x="45" y="80" width="5" height="5" />
		<rect x="50" y="80" width="5" height="5" />
		<rect x="60" y="80" width="5" height="5" />
		<rect x="75" y="80" width="5" height="5" />
		<rect x="85" y="80" width="5" height="5" />
		<rect x="90" y="80" width="5" height="5" />
		<rect x="95" y="80" width="5" height="5" />
		<rect x="100" y="80" width="5" height="5" />
		<rect x="105" y="80" width="5" height="5" />
		<rect x="110" y="80" width="5" height="5" />
		<rect x="115" y="80" width="5" height="5" />
		<rect x="120" y="80" width="5" height="5" />
		<rect x="125" y="80" width="5" height="5" />
		<rect x="130" y="80" width="5" height="5" />
		<rect x="135" y="80" width="5" height="5" />
		<rect x="155" y="80" width="5" height="5" />
		<rect x="160" y="80" width="5" height="5" />
		<rect x="175" y="80" width="5" height="5" />
		<rect x="190" y="80" width="5" height="5" />
		<rect x="0" y="85" width="5" height="5" />
		<rect x="20" y="85" width="5" height="5" />
		<rect x="35" y="85" width="5" height="5" />
		<rect x="40" y="85" width="5" height="5" />
		<rect x="45" y="85" width="5" height="5" />
		<rect x="65" y="85" width="5" height="5" />
		<rect x="90" y="85" width="5" height="5" />
		<rect x="100" y="85" width="5" height="5" />
		<rect x="105" y="85" width="5" height="5" />
		<rect x="110" y="85" width="5" height="5" />
		<rect x="120" y="85" width="5" height="5" />
		<rect x="135" y="85" width="5" height="5" />
		<rect x="155" y="85" width="5" height="5" />
		<rect x="160" y="85" width="5" height="5" />
		<rect x="180" y="85" width="5" height="5" />
		<rect x="195" y="85" width="5" height="5" />
		<rect x="200" y="85" width="5" height="5" />
		<rect x="0" y="90" width="5" height="5" />
		<rect x="10" y="90" width="5" height="5" />
		<rect x="15" y="90" width="5" height="5" />
		<rect x="20" y="90" width="5" height="5" />
		<rect x="25" y="90" width="5" height="5" />
		<rect x="30" y="90" width="5" height="5" />
		<rect x="35" y="90" width="5" height="5" />
		<rect x="45" y="90" width="5" height="5" />
		<rect x="55" y="90" width="5" height="5" />
		<rect x="60" y="90" width="5" height="5" />
		<rect x="65" y="90" width="5" height="5" />
		<rect x="70" y="90" width="5" height="5" />
		<rect x="75" y="90" width="5" height="5" />
		<rect x="95" y="90" width="5" height="5" />
		<rect x="105" y="90" width="5" height="5" />
		<rect x="110" y="90" width="5" height="5" />
		<rect x="115" y="90" width="5" height="5" />
		<rect x="120" y="90" width="5" height="5" />
		<rect x="130" y="90" width="5" height="5" />
		<rect x="135" y="90" width="5" height="5" />
		<rect x="140" y="90" width="5" height="5" />
		<rect x="145" y="90" width="5" height="5" />
		<rect x="155" y="90" width="5" height="5" />
		<rect x="160" y="90" width="5" height="5" />
		<rect x="185" y="90" width="5" height="5" />
		<rect x="190" y="90" width="5" height="5" />
		<rect x="195" y="90" width="5" height="5" />
		<rect x="10" y="95" width="5" height="5" />
		<rect x="20" y="95" width="5" height="5" />
		<rect x="35" y="95" width="5" height="5" />
		<rect x="40" y="95" width="5" height="5" />
		<rect x="70" y="95" width="5" height="5" />
		<rect x="75" y="95" width="5" height="5" />
		<rect x="100" y="95" width="5" height="5" />
		<rect x="105" y="95" width="5" height="5" />
		<rect x="110" y="95" width="5" height="5" />
		<rect x="115" y="95" width="5" height="5" />
		<rect x="125" y="95" width="5" height="5" />
		<rect x="135" y="95" width="5" height="5" />
		<rect x="140" y="95" width="5" height="5" />
		<rect x="150" y="95" width="5" height="5" />
		<rect x="175" y="95" width="5" height="5" />
		<rect x="180" y="95" width="5" height="5" />
		<rect x="190" y="95" width="5" height="5" />
		<rect x="195" y="95" width="5" height="5" />
		<rect x="0" y="100" width="5" height="5" />
		<rect x="10" y="100" width="5" height="5" />
		<rect x="20" y="100" width="5" height="5" />
		<rect x="25" y="100" width="5" height="5" />
		<rect x="30" y="100" width="5" height="5" />
		<rect x="45" y="100" width="5" height="5" />
		<rect x="50" y="100" width="5" height="5" />
		<rect x="55" y="100" width="5" height="5" />
		<rect x="65" y="100" width="5" height="5" />
		<rect x="70" y="100" width="5" height="5" />
		<rect x="90" y="100" width="5" height="5" />
		<rect x="95" y="100" width="5" height="5" />
		<rect x="100" y="100" width="5" height="5" />
		<rect x="115" y="100" width="5" height="5" />
		<rect x="135" y="100" width="5" height="5" />
		<rect x="140" y="100" width="5" height="5" />
		<rect x="145" y="100" width="5" height="5" />
		<rect x="160" y="100" width="5" height="5" />
		<rect x="175" y="100" width="5" height="5" />
		<rect x="190" y="100" width="5" height="5" />
		<rect x="195" y="100" width="5" height="5" />
		<rect x="200" y="100" width="5" height="5" />
		<rect x="0" y="105" width="5" height="5" />
		<rect x="5" y="105" width="5" height="5" />
		<rect x="10" y="105" width="5" height="5" />
		<rect x="15" y="105" width="5" height="5" />
		<rect x="20" y="105" width="5" height="5" />
		<rect x="35" y="105" width="5" height="5" />
		<rect x="45" y="105" width="5" height="5" />
		<rect x="50" y="105" width="5" height="5" />
		<rect x="60" y="105" width="5" height="5" />
		<rect x="70" y="105" width="5" height="5" />
		<rect x="75" y="105" width="5" height="5" />
		<rect x="85" y="105" width="5" height="5" />
		<rect x="100" y="105" width="5" height="5" />
		<rect x="110" y="105" width="5" height="5" />
		<rect x="115" y="105" width="5" height="5" />
		<rect x="120" y="105" width="5" height="5" />
		<rect x="125" y="105" width="5" height="5" />
		<rect x="150" y="105" width="5" height="5" />
		<rect x="155" y="105" width="5" height="5" />
		<rect x="165" y="105" width="5" height="5" />
		<rect x="180" y="105" width="5" height="5" />
		<rect x="185" y="105" width="5" height="5" />
		<rect x="190" y="105" width="5" height="5" />
		<rect x="195" y="105" width="5" height="5" />
		<rect x="0" y="110" width="5" height="5" />
		<rect x="10" y="110" width="5" height="5" />
		<rect x="15" y="110" width="5" height="5" />
		<rect x="20" y="110" width="5" height="5" />
		<rect x="25" y="110" width="5" height="5" />
		<rect x="30" y="110" width="5" height="5" />
		<rect x="40" y="110" width="5" height="5" />
		<rect x="50" y="110" width="5" height="5" />
		<rect x="55" y="110" width="5" height="5" />
		<rect x="65" y="110" width="5" height="5" />
		<rect x="90" y="110" width="5" height="5" />
		<rect x="95" y="110" width="5" height="5" />
		<rect x="105" y="110" width="5" height="5" />
		<rect x="115" y="110" width="5" height="5" />
		<rect x="120" y="110" width="5" height="5" />
		<rect x="125" y="110" width="5" height="5" />
		<rect x="140" y="110" width="5" height="5" />
		<rect x="145" y="110" width="5" height="5" />
		<rect x="160" y="110" width="5" height="5" />
		<rect x="0" y="115" width="5" height="5" />
		<rect x="15" y="115" width="5" height="5" />
		<rect x="25" y="115" width="5" height="5" />
		<rect x="35" y="115" width="5" height="5" />
		<rect x="40" y="115" width="5" height="5" />
		<rect x="55" y="115" width="5" height="5" />
		<rect x="60" y="115" width="5" height="5" />
		<rect x="85" y="115" width="5" height="5" />
		<rect x="105" y="115" width="5" height="5" />
		<rect x="110" y="115" width="5" height="5" />
		<rect x="135" y="115" width="5" height="5" />
		<rect x="140" y="115" width="5" height="5" />
		<rect x="145" y="115" width="5" height="5" />
		<rect x="155" y="115" width="5" height="5" />
		<rect x="160" y="115" width="5" height="5" />
		<rect x="170" y="115" width="5" height="5" />
		<rect x="175" y="115" width="5" height="5" />
		<rect x="180" y="115" width="5" height="5" />
		<rect x="185" y="115" width="5" height="5" />
		<rect x="200" y="115" width="5" height="5" />
		<rect x="0" y="120" width="5" height="5" />
		<rect x="5" y="120" width="5" height="5" />
		<rect x="10" y="120" width="5" height="5" />
		<rect x="15" y="120" width="5" height="5" />
		<rect x="20" y="120" width="5" height="5" />
		<rect x="30" y="120" width="5" height="5" />
		<rect x="35" y="120" width="5" height="5" />
		<rect x="40" y="120" width="5" height="5" />
		<rect x="45" y="120" width="5" height="5" />
		<rect x="50" y="120" width="5" height="5" />
		<rect x="55" y="120" width="5" height="5" />
		<rect x="95" y="120" width="5" height="5" />
		<rect x="100" y="120" width="5" height="5" />
		<rect x="110" y="120" width="5" height="5" />
		<rect x="120" y="120" width="5" height="5" />
		<rect x="135" y="120" width="5" height="5" />
		<rect x="155" y="120" width="5" height="5" />
		<rect x="160" y="120" width="5" height="5" />
		<rect x="170" y="120" width="5" height="5" />
		<rect x="195" y="120" width="5" height="5" />
		<rect x="15" y="125" width="5" height="5" />
		<rect x="20" y="125" width="5" height="5" />
		<rect x="25" y="125" width="5" height="5" />
		<rect x="35" y="125" width="5" height="5" />
		<rect x="40" y="125" width="5" height="5" />
		<rect x="50" y="125" width="5" height="5" />
		<rect x="55" y="125" width="5" height="5" />
		<rect x="60" y="125" width="5" height="5" />
		<rect x="85" y="125" width="5" height="5" />
		<rect x="90" y="125" width="5" height="5" />
		<rect x="100" y="125" width="5" height="5" />
		<rect x="110" y="125" width="5" height="5" />
		<rect x="115" y="125" width="5" height="5" />
		<rect x="130" y="125" width="5" height="5" />
		<rect x="135" y="125" width="5" height="5" />
		<rect x="140" y="125" width="5" height="5" />
		<rect x="150" y="125" width="5" height="5" />
		<rect x="160" y="125" width="5" height="5" />
		<rect x="165" y="125" width="5" height="5" />
		<rect x="170" y="125" width="5" height="5" />
		<rect x="175" y="125" width="5" height="5" />
		<rect x="180" y="125" width="5" height="5" />
		<rect x="185" y="125" width="5" height="5" />
		<rect x="190" y="125" width="5" height="5" />
		<rect x="195" y="125" width="5" height="5" />
		<rect x="200" y="125" width="5" height="5" />
		<rect x="0" y="130" width="5" height="5" />
		<rect x="20" y="130" width="5" height="5" />
		<rect x="30" y="130" width="5" height="5" />
		<rect x="35" y="130" width="5" height="5" />
		<rect x="40" y="130" width="5" height="5" />
		<rect x="45" y="130" width="5" height="5" />
		<rect x="50" y="130" width="5" height="5" />
		<rect x="70" y="130" width="5" height="5" />
		<rect x="90" y="130" width="5" height="5" />
		<rect x="95" y="130" width="5" height="5" />
		<rect x="100" y="130" width="5" height="5" />
		<rect x="110" y="130" width="5" height="5" />
		<rect x="125" y="130" width="5" height="5" />
		<rect x="130" y="130" width="5" height="5" />
		<rect x="135" y="130" width="5" height="5" />
		<rect x="145" y="130" width="5" height="5" />
		<rect x="155" y="130" width="5" height="5" />
		<rect x="165" y="130" width="5" height="5" />
		<rect x="170" y="130" width="5" height="5" />
		<rect x="175" y="130" width="5" height="5" />
		<rect x="190" y="130" width="5" height="5" />
		<rect x="0" y="135" width="5" height="5" />
		<rect x="5" y="135" width="5" height="5" />
		<rect x="10" y="135" width="5" height="5" />
		<rect x="50" y="135" width="5" height="5" />
		<rect x="55" y="135" width="5" height="5" />
		<rect x="60" y="135" width="5" height="5" />
		<rect x="75" y="135" width="5" height="5" />
		<rect x="80" y="135" width="5" height="5" />
		<rect x="85" y="135" width="5" height="5" />
		<rect x="95" y="135" width="5" height="5" />
		<rect x="100" y="135" width="5" height="5" />
		<rect x="115" y="135" width="5" height="5" />
		<rect x="130" y="135" width="5" height="5" />
		<rect x="140" y="135" width="5" height="5" />
		<rect x="145" y="135" width="5" height="5" />
		<rect x="155" y="135" width="5" height="5" />
		<rect x="160" y="135" width="5" height="5" />
		<rect x="165" y="135" width="5" height="5" />
		<rect x="170" y="135" width="5" height="5" />
		<rect x="175" y="135" width="5" height="5" />
		<rect x="190" y="135" width="5" height="5" />
		<rect x="200" y="135" width="5" height="5" />
		<rect x="5" y="140" width="5" height="5" />
		<rect x="10" y="140" width="5" height="5" />
		<rect x="15" y="140" width="5" height="5" />
		<rect x="20" y="140" width="5" height="5" />
		<rect x="30" y="140" width="5" height="5" />
		<rect x="35" y="140" width="5" height="5" />
		<rect x="40" y="140" width="5" height="5" />
		<rect x="55" y="140" width="5" height="5" />
		<rect x="60" y="140" width="5" height="5" />
		<rect x="70" y="140" width="5" height="5" />
		<rect x="95" y="140" width="5" height="5" />
		<rect x="125" y="140" width="5" height="5" />
		<rect x="140" y="140" width="5" height="5" />
		<rect x="145" y="140" width="5" height="5" />
		<rect x="150" y="140" width="5" height="5" />
		<rect x="160" y="140" width="5" height="5" />
		<rect x="165" y="140" width="5" height="5" />
		<rect x="170" y="140" width="5" height="5" />
		<rect x="175" y="140" width="5" height="5" />
		<rect x="185" y="140" width="5" height="5" />
		<rect x="200" y="140" width="5" height="5" />
		<rect x="0" y="145" width="5" height="5" />
		<rect x="5" y="145" width="5" height="5" />
		<rect x="15" y="145" width="5" height="5" />
		<rect x="25" y="145" width="5" height="5" />
		<rect x="40" y="145" width="5" height="5" />
		<rect x="55" y="145" width="5" height="5" />
		<rect x="65" y="145" width="5" height="5" />
		<rect x="70" y="145" width="5" height="5" />
		<rect x="80" y="145" width="5" height="5" />
		<rect x="85" y="145" width="5" height="5" />
		<rect x="90" y="145" width="5" height="5" />
		<rect x="95" y="145" width="5" height="5" />
		<rect x="100" y="145" width="5" height="5" />
		<rect x="105" y="145" width="5" height="5" />
		<rect x="115" y="145" width="5" height="5" />
		<rect x="120" y="145" width="5" height="5" />
		<rect x="135" y="145" width="5" height="5" />
		<rect x="140" y="145" width="5" height="5" />
		<rect x="150" y="145" width="5" height="5" />
		<rect x="160" y="145" width="5" height="5" />
		<rect x="165" y="145" width="5" height="5" />
		<rect x="170" y="145" width="5" height="5" />
		<rect x="190" y="145" width="5" height="5" />
		<rect x="0" y="150" width="5" height="5" />
		<rect x="5" y="150" width="5" height="5" />
		<rect x="10" y="150" width="5" height="5" />
		<rect x="30" y="150" width="5" height="5" />
		<rect x="35" y="150" width="5" height="5" />
		<rect x="40" y="150" width="5" height="5" />
		<rect x="45" y="150" width="5" height="5" />
		<rect x="50" y="150" width="5" height="5" />
		<rect x="60" y="150" width="5" height="5" />
		<rect x="65" y="150" width="5" height="5" />
		<rect x="70" y="150" width="5" height="5" />
		<rect x="85" y="150" width="5" height="5" />
		<rect x="90" y="150" width="5" height="5" />
		<rect x="100" y="150" width="5" height="5" />
		<rect x="105" y="150" width="5" height="5" />
		<rect x="130" y="150" width="5" height="5" />
		<rect x="135" y="150" width="5" height="5" />
		<rect x="140" y="150" width="5" height="5" />
		<rect x="165" y="150" width="5" height="5" />
		<rect x="170" y="150" width="5" height="5" />
		<rect x="180" y="150" width="5" height="5" />
		<rect x="185" y="150" width="5" height="5" />
		<rect x="190" y="150" width="5" height="5" />
		<rect x="200" y="150" width="5" height="5" />
		<rect x="0" y="155" width="5" height="5" />
		<rect x="5" y="155" width="5" height="5" />
		<rect x="15" y="155" width="5" height="5" />
		<rect x="25" y="155" width="5" height="5" />
		<rect x="40" y="155" width="5" height="5" />
		<rect x="55" y="155" width="5" height="5" />
		<rect x="70" y="155" width="5" height="5" />
		<rect x="75" y="155" width="5" height="5" />
		<rect x="80" y="155" width="5" height="5" />
		<rect x="95" y="155" width="5" height="5" />
		<rect x="120" y="155" width="5" height="5" />
		<rect x="125" y="155" width="5" height="5" />
		<rect x="135" y="155" width="5" height="5" />
		<rect x="140" y="155" width="5" height="5" />
		<rect x="150" y="155" width="5" height="5" />
		<rect x="160" y="155" width="5" height="5" />
		<rect x="165" y="155" width="5" height="5" />
		<rect x="170" y="155" width="5" height="5" />
		<rect x="0" y="160" width="5" height="5" />
		<rect x="5" y="160" width="5" height="5" />
		<rect x="10" y="160" width="5" height="5" />
		<rect x="20" y="160" width="5" height="5" />
		<rect x="25" y="160" width="5" height="5" />
		<rect x="30" y="160" width="5" height="5" />
		<rect x="35" y="160" width="5" height="5" />
		<rect x="50" y="160" width="5" height="5" />
		<rect x="55" y="160" width="5" height="5" />
		<rect x="60" y="160" width="5" height="5" />
		<rect x="65" y="160" width="5" height="5" />
		<rect x="70" y="160" width="5" height="5" />
		<rect x="75" y="160" width="5" height="5" />
		<rect x="80" y="160" width="5" height="5" />
		<rect x="85" y="160" width="5" height="5" />
		<rect x="105" y="160" width="5" height="5" />
		<rect x="110" y="160" width="5" height="5" />
		<rect x="120" y="160" width="5" height="5" />
		<rect x="130" y="160" width="5" height="5" />
		<rect x="145" y="160" width="5" height="5" />
		<rect x="155" y="160" width="5" height="5" />
		<rect x="160" y="160" width="5" height="5" />
		<rect x="165" y="160" width="5" height="5" />
		<rect x="170" y="160" width="5" height="5" />
		<rect x="175" y="160" width="5" height="5" />
		<rect x="180" y="160" width="5" height="5" />
		<rect x="185" y="160" width="5" height="5" />
		<rect x="200" y="160" width="5" height="5" />
		<rect x="40" y="165" width="5" height="5" />
		<rect x="55" y="165" width="5" height="5" />
		<rect x="70" y="165" width="5" height="5" />
		<rect x="80" y="165" width="5" height="5" />
		<rect x="90" y="165" width="5" height="5" />
		<rect x="95" y="165" width="5" height="5" />
		<rect x="105" y="165" width="5" height="5" />
		<rect x="115" y="165" width="5" height="5" />
		<rect x="120" y="165" width="5" height="5" />
		<rect x="130" y="165" width="5" height="5" />
		<rect x="135" y="165" width="5" height="5" />
		<rect x="145" y="165" width="5" height="5" />
		<rect x="150" y="165" width="5" height="5" />
		<rect x="155" y="165" width="5" height="5" />
		<rect x="160" y="165" width="5" height="5" />
		<rect x="180" y="165" width="5" height="5" />
		<rect x="200" y="165" width="5" height="5" />
		<rect x="0" y="170" width="5" height="5" />
		<rect x="5" y="170" width="5" height="5" />
		<rect x="10" y="170" width="5" height="5" />
		<rect x="15" y="170" width="5" height="5" />
		<rect x="20" y="170" width="5" height="5" />
		<rect x="25" y="170" width="5" height="5" />
		<rect x="30" y="170" width="5" height="5" />
		<rect x="45" y="170" width="5" height="5" />
		<rect x="50" y="170" width="5" height="5" />
		<rect x="65" y="170" width="5" height="5" />
		<rect x="70" y="170" width="5" height="5" />
		<rect x="75" y="170" width="5" height="5" />
		<rect x="80" y="170" width="5" height="5" />
		<rect x="90" y="170" width="5" height="5" />
		<rect x="100" y="170" width="5" height="5" />
		<rect x="105" y="170" width="5" height="5" />
		<rect x="110" y="170" width="5" height="5" />
		<rect x="115" y="170" width="5" height="5" />
		<rect x="125" y="170" width="5" height="5" />
		<rect x="135" y="170" width="5" height="5" />
		<rect x="145" y="170" width="5" height="5" />
		<rect x="155" y="170" width="5" height="5" />
		<rect x="160" y="170" width="5" height="5" />
		<rect x="170" y="170" width="5" height="5" />
		<rect x="180" y="170" width="5" height="5" />
		<rect x="195" y="170" width="5" height="5" />
		<rect x="200" y="170" width="5" height="5" />
		<rect x="0" y="175" width="5" height="5" />
		<rect x="30" y="175" width="5" height="5" />
		<rect x="50" y="175" width="5" height="5" />
		<rect x="55" y="175" width="5" height="5" />
		<rect x="60" y="175" width="5" height="5" />
		<rect x="75" y="175" width="5" height="5" />
		<rect x="80" y="175" width="5" height="5" />
		<rect x="85" y="175" width="5" height="5" />
		<rect x="110" y="175" width="5" height="5" />
		<rect x="115" y="175" width="5" height="5" />
		<rect x="125" y="175" width="5" height="5" />
		<rect x="130" y="175" width="5" height="5" />
		<rect x="150" y="175" width="5" height="5" />
		<rect x="155" y="175" width="5" height="5" />
		<rect x="160" y="175" width="5" height="5" />
		<rect x="180" y="175" width="5" height="5" />
		<rect x="195" y="175" width="5" height="5" />
		<rect x="0" y="180" width="5" height="5" />
		<rect x="10" y="180" width="5" height="5" />
		<rect x="15" y="180" width="5" height="5" />
		<rect x="20" y="180" width="5" height="5" />
		<rect x="30" y="180" width="5" height="5" />
		<rect x="40" y="180" width="5" height="5" />
		<rect x="45" y="180" width="5" height="5" />
		<rect x="50" y="180" width="5" height="5" />
		<rect x="60" y="180" width="5" height="5" />
		<rect x="65" y="180" width="5" height="5" />
		<rect x="70" y="180" width="5" height="5" />
		<rect x="80" y="180" width="5" height="5" />
		<rect x="90" y="180" width="5" height="5" />
		<rect x="95" y="180" width="5" height="5" />
		<rect x="100" y="180" width="5" height="5" />
		<rect x="125" y="180" width="5" height="5" />
		<rect x="130" y="180" width="5" height="5" />
		<rect x="135" y="180" width="5" height="5" />
		<rect x="155" y="180" width="5" height="5" />
		<rect x="160" y="180" width="5" height="5" />
		<rect x="165" y="180" width="5" height="5" />
		<rect x="170" y="180" width="5" height="5" />
		<rect x="175" y="180" width="5" height="5" />
		<rect x="180" y="180" width="5" height="5" />
		<rect x="185" y="180" width="5" height="5" />
		<rect x="200" y="180" width="5" height="5" />
		<rect x="0" y="185" width="5" height="5" />
		<rect x="10" y="185" width="5" height="5" />
		<rect x="15" y="185" width="5" height="5" />
		<rect x="20" y="185" width="5" height="5" />
		<rect x="30" y="185" width="5" height="5" />
		<rect x="40" y="185" width="5" height="5" />
		<rect x="50" y="185" width="5" height="5" />
		<rect x="60" y="185" width="5" height="5" />
		<rect x="70" y="185" width="5" height="5" />
		<rect x="75" y="185" width="5" height="5" />
		<rect x="80" y="185" width="5" height="5" />
		<rect x="85" y="185" width="5" height="5" />
		<rect x="95" y="185" width="5" height="5" />
		<rect x="100" y="185" width="5" height="5" />
		<rect x="115" y="185" width="5" height="5" />
		<rect x="130" y="185" width="5" height="5" />
		<rect x="145" y="185" width="5" height="5" />
		<rect x="165" y="185" width="5" height="5" />
		<rect x="200" y="185" width="5" height="5" />
		<rect x="0" y="190" width="5" height="5" />
		<rect x="10" y="190" width="5" height="5" />
		<rect x="15" y="190" width="5" height="5" />
		<rect x="20" y="190" width="5" height="5" />
		<rect x="30" y="190" width="5" height="5" />
		<rect x="50" y="190" width="5" height="5" />
		<rect x="60" y="190" width="5" height="5" />
		<rect x="70" y="190" width="5" height="5" />
		<rect x="75" y="190" width="5" height="5" />
		<rect x="80" y="190" width="5" height="5" />
		<rect x="85" y="190" width="5" height="5" />
		<rect x="90" y="190" width="5" height="5" />
		<rect x="100" y="190" width="5" height="5" />
		<rect x="105" y="190" width="5" height="5" />
		<rect x="115" y="190" width="5" height="5" />
		<rect x="120" y="190" width="5" height="5" />
		<rect x="130" y="190" width="5" height="5" />
		<rect x="150" y="190" width="5" height="5" />
		<rect x="160" y="190" width="5" height="5" />
		<rect x="165" y="190" width="5" height="5" />
		<rect x="180" y="190" width="5" height="5" />
		<rect x="190" y="190" width="5" height="5" />
		<rect x="195" y="190" width="5" height="5" />
		<rect x="200" y="190" width="5" height="5" />
		<rect x="0" y="195" width="5" height="5" />
		<rect x="30" y="195" width="5" height="5" />
		<rect x="40" y="195" width="5" height="5" />
		<rect x="50" y="195" width="5" height="5" />
		<rect x="60" y="195" width="5" height="5" />
		<rect x="95" y="195" width="5" height="5" />
		<rect x="105" y="195" width="5" height="5" />
		<rect x="110" y="195" width="5" height="5" />
		<rect x="140" y="195" width="5" height="5" />
		<rect x="155" y="195" width="5" height="5" />
		<rect x="165" y="195" width="5" height="5" />
		<rect x="175" y="195" width="5" height="5" />
		<rect x="190" y="195" width="5" height="5" />
		<rect x="200" y="195" width="5" height="5" />
		<rect x="0" y="200" width="5" height="5" />
		<rect x="5" y="200" width="5" height="5" />
		<rect x="10" y="200" width="5" height="5" />
		<rect x="15" y="200" width="5" height="5" />
		<rect x="20" y="200" width="5" height="5" />
		<rect x="25" y="200" width="5" height="5" />
		<rect x="30" y="200" width="5" height="5" />
		<rect x="40" y="200" width="5" height="5" />
		<rect x="45" y="200" width="5" height="5" />
		<rect x="50" y="200" width="5" height="5" />
		<rect x="55" y="200" width="5" height="5" />
		<rect x="70" y="200" width="5" height="5" />
		<rect x="80" y="200" width="5" height="5" />
		<rect x="100" y="200" width="5" height="5" />
		<rect x="120" y="200" width="5" height="5" />
		<rect x="125" y="200" width="5" height="5" />
		<rect x="135" y="200" width="5" height="5" />
		<rect x="140" y="200" width="5" height="5" />
		<rect x="160" y="200" width="5" height="5" />
		<rect x="165" y="200" width="5" height="5" />
		<rect x="170" y="200" width="5" height="5" />
		<rect x="185" y="200" width="5" height="5" />
		<rect x="190" y="200" width="5" height="5" />
	</g>
</svg>
